HIERARCHY
ROOT hip
{
  OFFSET -193.79 83.7881 -19.0119
  CHANNELS 6 Xposition Yposition Zposition Zrotation Xrotation Yrotation
  JOINT abdomen
  {
    OFFSET 0 20.6881 -0.73152
    CHANNELS 3 Zrotation Xrotation Yrotation
    JOINT chest
    {
      OFFSET 0 11.7043 -0.48768
      CHANNELS 3 Zrotation Xrotation Yrotation
      JOINT neck
      {
        OFFSET 0 22.1894 -2.19456
        CHANNELS 3 Zrotation Xrotation Yrotation
        JOINT head
        {
          OFFSET -0.24384 7.07133 1.2192
          CHANNELS 3 Zrotation Xrotation Yrotation
          JOINT leftEye
          {
            OFFSET 4.14528 8.04674 8.04672
            CHANNELS 3 Zrotation Xrotation Yrotation
            End Site
            {
              OFFSET 1 0 0
            }
          }
          JOINT rightEye
          {
            OFFSET -3.6576 8.04674 8.04672
            CHANNELS 3 Zrotation Xrotation Yrotation
            End Site
            {
              OFFSET 1 0 0
            }
          }
        }
      }
      JOINT rCollar
      {
        OFFSET -2.68224 19.2634 -4.8768
        CHANNELS 3 Zrotation Xrotation Yrotation
        JOINT rShldr
        {
          OFFSET -8.77824 -1.95073 1.46304
          CHANNELS 3 Zrotation Xrotation Yrotation
          JOINT rForeArm
          {
            OFFSET -28.1742 -1.7115 0.48768
            CHANNELS 3 Zrotation Xrotation Yrotation
            JOINT rHand
            {
              OFFSET -22.5879 0.773209 7.07136
              CHANNELS 3 Zrotation Xrotation Yrotation
              JOINT rThumb1
              {
                OFFSET -1.2192 -0.487915 3.41376
                CHANNELS 3 Zrotation Xrotation Yrotation
                JOINT rThumb2
                {
                  OFFSET -3.37035 -0.52449 3.41376
                  CHANNELS 3 Zrotation Xrotation Yrotation
                  End Site
                  {
                    OFFSET -1.78271 -1.18214 1.43049
                  }
                }
              }
              JOINT rIndex1
              {
                OFFSET -7.75947 0.938293 5.60832
                CHANNELS 3 Zrotation Xrotation Yrotation
                JOINT rIndex2
                {
                  OFFSET -2.54057 -0.884171 1.56538
                  CHANNELS 3 Zrotation Xrotation Yrotation
                  End Site
                  {
                    OFFSET -1.62519 -0.234802 1.16502
                  }
                }
              }
              JOINT rMid1
              {
                OFFSET -8.24714 1.18213 3.41376
                CHANNELS 3 Zrotation Xrotation Yrotation
                JOINT rMid2
                {
                  OFFSET -3.10165 -0.590103 1.0647
                  CHANNELS 3 Zrotation Xrotation Yrotation
                  End Site
                  {
                    OFFSET -2.48547 -0.328903 0.83742
                  }
                }
              }
              JOINT rRing1
              {
                OFFSET -8.82822 0.546677 1.51678
                CHANNELS 3 Zrotation Xrotation Yrotation
                JOINT rRing2
                {
                  OFFSET -2.60934 -0.819778 -0.0198488
                  CHANNELS 3 Zrotation Xrotation Yrotation
                  End Site
                  {
                    OFFSET -2.33842 -0.294052 0.168128
                  }
                }
              }
              JOINT rPinky1
              {
                OFFSET -8.27202 -0.0477905 -0.4584
                CHANNELS 3 Zrotation Xrotation Yrotation
                JOINT rPinky2
                {
                  OFFSET -1.82734 -0.647385 -0.700984
                  CHANNELS 3 Zrotation Xrotation Yrotation
                  End Site
                  {
                    OFFSET -1.69225 -0.51767 -0.607171
                  }
                }
              }
            }
          }
        }
      }
      JOINT lCollar
      {
        OFFSET 2.68224 19.2634 -4.8768
        CHANNELS 3 Zrotation Xrotation Yrotation
        JOINT lShldr
        {
          OFFSET 8.77824 -1.95073 1.46304
          CHANNELS 3 Zrotation Xrotation Yrotation
          JOINT lForeArm
          {
            OFFSET 28.1742 -1.7115 0.48768
            CHANNELS 3 Zrotation Xrotation Yrotation
            JOINT lHand
            {
              OFFSET 22.5879 0.773209 7.07136
              CHANNELS 3 Zrotation Xrotation Yrotation
              JOINT lThumb1
              {
                OFFSET 1.2192 -0.487915 3.41376
                CHANNELS 3 Zrotation Xrotation Yrotation
                JOINT lThumb2
                {
                  OFFSET 3.37035 -0.52449 3.41376
                  CHANNELS 3 Zrotation Xrotation Yrotation
                  End Site
                  {
                    OFFSET 1.78271 -1.18214 1.43049
                  }
                }
              }
              JOINT lIndex1
              {
                OFFSET 7.75947 0.938293 5.60832
                CHANNELS 3 Zrotation Xrotation Yrotation
                JOINT lIndex2
                {
                  OFFSET 2.54057 -0.884171 1.56538
                  CHANNELS 3 Zrotation Xrotation Yrotation
                  End Site
                  {
                    OFFSET 1.62519 -0.234802 1.16502
                  }
                }
              }
              JOINT lMid1
              {
                OFFSET 8.24714 1.18213 3.41376
                CHANNELS 3 Zrotation Xrotation Yrotation
                JOINT lMid2
                {
                  OFFSET 3.10165 -0.590103 1.0647
                  CHANNELS 3 Zrotation Xrotation Yrotation
                  End Site
                  {
                    OFFSET 2.48547 -0.328903 0.83742
                  }
                }
              }
              JOINT lRing1
              {
                OFFSET 8.82822 0.546677 1.51678
                CHANNELS 3 Zrotation Xrotation Yrotation
                JOINT lRing2
                {
                  OFFSET 2.60934 -0.819778 -0.0198488
                  CHANNELS 3 Zrotation Xrotation Yrotation
                  End Site
                  {
                    OFFSET 2.33842 -0.294052 0.168128
                  }
                }
              }
              JOINT lPinky1
              {
                OFFSET 8.27202 -0.0477905 -0.4584
                CHANNELS 3 Zrotation Xrotation Yrotation
                JOINT lPinky2
                {
                  OFFSET 1.82734 -0.647385 -0.700984
                  CHANNELS 3 Zrotation Xrotation Yrotation
                  End Site
                  {
                    OFFSET 1.69225 -0.51767 -0.607171
                  }
                }
              }
            }
          }
        }
      }
    }
  }
  JOINT rButtock
  {
    OFFSET -8.77824 4.35084 1.2192
    CHANNELS 3 Zrotation Xrotation Yrotation
    JOINT rThigh
    {
      OFFSET 0 -1.70687 -2.19456
      CHANNELS 3 Zrotation Xrotation Yrotation
      JOINT rShin
      {
        OFFSET 0 -36.8199 0.73152
        CHANNELS 3 Zrotation Xrotation Yrotation
        JOINT rFoot
        {
          OFFSET 0.73152 -45.1104 -5.12064
          CHANNELS 3 Zrotation Xrotation Yrotation
          End Site
          {
            OFFSET -1.1221 -3.69964 12.103
          }
        }
      }
    }
  }
  JOINT lButtock
  {
    OFFSET 8.77824 4.35084 1.2192
    CHANNELS 3 Zrotation Xrotation Yrotation
    JOINT lThigh
    {
      OFFSET 0 -1.70687 -2.19456
      CHANNELS 3 Zrotation Xrotation Yrotation
      JOINT lShin
      {
        OFFSET 0 -36.8199 0.73152
        CHANNELS 3 Zrotation Xrotation Yrotation
        JOINT lFoot
        {
          OFFSET -0.73152 -45.1104 -5.12064
          CHANNELS 3 Zrotation Xrotation Yrotation
          End Site
          {
            OFFSET 1.1221 -3.69964 12.103
          }
        }
      }
    }
  }
}
MOTION
Frames:	8
Frame Time:	0.00833333
-184.815 85.1237 19.7815 -0.330514 -0.0106499 0.00540066 0.435968 -0.0238513 0.0128199 0.121274 -0.0396248 0.0210491 -8.13555e-015 1.59028e-015 6.83323e-017 -2.43434e-014 1.59028e-014 1.9102e-016 -0 0 0 -0 0 0 -3.92767e-015 -3.80486e-017 1.98785e-016 -8.51236e-014 -6.02566e-016 1.19271e-015 -1.47483e-012 4.13075e-013 3.18055e-014 -1.6828e-011 -5.77146e-013 9.22361e-014 -3.97087e-011 -3.6067e-013 2.8625e-013 -6.85938e-011 -6.20208e-013 4.93781e-013 -3.9708e-011 -3.62186e-013 2.79889e-013 7.73091 5.47488 0.417314 -3.97108e-011 -3.61987e-013 2.92611e-013 2.90554 0.965183 0.102902 -3.97112e-011 -3.61689e-013 2.85455e-013 10.2786 0.731801 0.0259123 -3.97182e-011 -3.53837e-013 2.8625e-013 2.22167 -0.733487 -0.20892 -4.22277e-015 -3.84369e-017 -9.93923e-017 -8.62829e-014 -7.88927e-016 -5.96354e-016 -1.46653e-012 -4.66945e-013 9.54166e-015 -1.68349e-011 3.00488e-013 1.27222e-013 -3.96968e-011 -3.62123e-013 2.8943e-013 -6.85374e-011 -6.26569e-013 4.97757e-013 -3.96989e-011 -3.64969e-013 2.98972e-013 -7.73091 5.47488 -0.417314 -3.96953e-011 -3.6308e-013 2.83069e-013 -2.90554 0.965183 -0.102902 -3.96959e-011 -3.62683e-013 2.8784e-013 -10.2786 0.731801 -0.0259123 -3.96858e-011 -3.57812e-013 2.79889e-013 -2.22167 -0.733487 0.20892 -2.03217e-016 0 -3.88251e-019 0.652031 -4.71109 -0.0694789 -0.000844375 2.99806 0.00381625 -0.326427 1.72325 0.0697939 2.03217e-016 0 3.88251e-019 0.0331909 -2.68026 0.0231589 0.00579461 -0.679748 0.0505389 0.296107 3.3702 -0.0966721 
-183.148 83.7071 2.78196 0.691885 2.09948 -48.8847 1.3895 -1.3364 -0.467614 2.63181 -4.10604 0.413421 -1.51931 0.010054 -0.108371 0.408331 2.78883 1.00374 -0 0 0 -0 0 0 2.32417e-014 9.78856e-014 -1.18389e-014 17.1849 15.089 -2.31426 -4.66901 -2.21794 7.18335 0.0206904 -3.19162 -0.446042 6.56006e-010 6.1841e-011 -8.59775e-010 1.13954e-009 9.98185e-011 -1.4825e-009 6.56007e-010 6.18405e-011 -8.59785e-010 7.73091 5.47488 0.417314 6.56003e-010 6.18417e-011 -8.59772e-010 2.90554 0.965183 0.102902 6.56006e-010 6.18403e-011 -8.59777e-010 10.2786 0.731801 0.0259123 6.55997e-010 6.18467e-011 -8.59776e-010 2.22167 -0.733487 -0.20892 2.2961e-014 9.78861e-014 -1.21406e-014 -22.6312 6.55215 5.01714 5.19069 -2.59062 -7.83955 -0.000126937 0.251105 -0.0352892 -5.48178e-010 1.60781e-010 5.5769e-010 -9.45946e-010 2.79202e-010 9.67017e-010 -5.48182e-010 1.60778e-010 5.57703e-010 -7.73091 5.47488 -0.417314 -5.48176e-010 1.60781e-010 5.57685e-010 -2.90554 0.965183 -0.102902 -5.48178e-010 1.60781e-010 5.57689e-010 -10.2786 0.731801 -0.0259123 -5.48169e-010 1.60784e-010 5.57683e-010 -2.22167 -0.733487 0.20892 -2.03217e-016 0 -3.88251e-019 5.34793 -5.83762 9.66504 -0.0482492 3.82578 -0.33211 -0.651016 -11.1011 -8.75983 2.03217e-016 0 3.88251e-019 -0.851579 -2.35935 -11.2588 0.00411315 -1.56773 0.0430284 0.160166 -8.4384 -0.102689 
-183.17 83.7267 2.76473 3.29766 -1.19323 -100.409 2.37176 -2.72682 -0.974128 5.34908 -8.39984 0.835511 -3.1431 0.0176438 -0.223806 0.776296 5.74415 2.07275 -0 0 0 -0 0 0 5.16367e-014 2.09402e-013 -2.64601e-014 36.8686 30.9419 -5.36186 -9.00463 -4.44593 14.8106 -0.0117872 -6.56325 -0.921955 1.44436e-009 1.24769e-010 -1.82092e-009 2.50835e-009 2.00689e-010 -3.13967e-009 1.44436e-009 1.2477e-010 -1.82093e-009 7.73091 5.47488 0.417314 1.44435e-009 1.24772e-010 -1.82092e-009 2.90554 0.965183 0.102902 1.44436e-009 1.24769e-010 -1.82092e-009 10.2786 0.731801 0.0259123 1.44435e-009 1.24774e-010 -1.82092e-009 2.22167 -0.733487 -0.20892 5.13682e-014 2.09403e-013 -2.67676e-014 -47.8336 13.3116 10.5427 9.91721 -5.1697 -16.1818 7.68288e-005 0.519371 -0.0729927 -1.09467e-009 3.73964e-010 1.18601e-009 -1.88884e-009 6.49174e-010 2.05641e-009 -1.09468e-009 3.7396e-010 1.18603e-009 -7.73091 5.47488 -0.417314 -1.09467e-009 3.73964e-010 1.18601e-009 -2.90554 0.965183 -0.102902 -1.09467e-009 3.73964e-010 1.18601e-009 -10.2786 0.731801 -0.0259123 -1.09466e-009 3.73966e-010 1.18601e-009 -2.22167 -0.733487 0.20892 -2.03217e-016 0 -3.88251e-019 10.7189 -6.77193 19.9989 -0.0877819 4.69932 -0.688094 -5.56539 -23.6484 -19.4588 2.03217e-016 0 3.88251e-019 -1.65349 -1.93865 -23.1871 0.00200238 -2.51022 0.0348073 -0.00323849 -20.9388 -0.161849 
-183.176 83.7382 2.74346 0.851659 -7.99184 -146.161 3.2304 -3.9604 -1.43152 7.82331 -12.2365 1.22277 -4.55781 0.0301615 -0.325113 0.929327 8.35617 3.03996 -0 0 0 -0 0 0 7.75804e-014 2.93733e-013 -3.59144e-014 56.4744 44.9077 -9.48635 -12.3741 -6.23638 21.6685 -0.0887848 -9.57252 -1.35492 2.04744e-009 1.86244e-010 -2.5799e-009 3.55579e-009 3.00696e-010 -4.4485e-009 2.04744e-009 1.86246e-010 -2.57991e-009 7.73091 5.47488 0.417314 2.04743e-009 1.86249e-010 -2.5799e-009 2.90554 0.965183 0.102902 2.04744e-009 1.86244e-010 -2.5799e-009 10.2786 0.731801 0.0259123 2.04743e-009 1.86248e-010 -2.5799e-009 2.22167 -0.733487 -0.20892 7.73284e-014 2.93735e-013 -3.62231e-014 -71.4593 19.037 15.84 13.4977 -7.19112 -23.6921 0.00054721 0.753312 -0.105876 -1.56514e-009 4.83068e-010 1.67249e-009 -2.70076e-009 8.3886e-010 2.90006e-009 -1.56515e-009 4.83063e-010 1.67251e-009 -7.73091 5.47488 -0.417314 -1.56514e-009 4.83068e-010 1.67249e-009 -2.90554 0.965183 -0.102902 -1.56514e-009 4.83067e-010 1.67249e-009 -10.2786 0.731801 -0.0259123 -1.56513e-009 4.83068e-010 1.67249e-009 -2.22167 -0.733487 0.20892 -2.03217e-016 0 -3.88251e-019 15.8147 -7.29043 29.2408 -0.113814 5.48057 -1.00633 -14.5221 -32.8829 -31.371 2.03217e-016 0 3.88251e-019 -2.24305 -1.54255 -33.8075 5.16926e-005 -3.3437 0.0280138 -0.125105 -32.0556 -0.13182 
-183.159 83.7342 2.71885 -5.10849 -11.6874 -178.615 3.82653 -4.80289 -1.76322 9.5684 -14.9326 1.49969 -5.44982 0.054999 -0.3911 0.756347 10.1199 3.72486 -0 0 0 -0 0 0 9.73958e-014 3.10102e-013 -3.24516e-014 72.274 54.4639 -14.1503 -14.4644 -7.33027 26.4899 -0.170241 -11.6781 -1.66459 2.18734e-009 2.44085e-010 -2.83347e-009 3.79979e-009 3.98543e-010 -4.88649e-009 2.18734e-009 2.44088e-010 -2.83349e-009 7.73091 5.47488 0.417314 2.18733e-009 2.44091e-010 -2.83348e-009 2.90554 0.965183 0.102902 2.18735e-009 2.44085e-010 -2.83348e-009 10.2786 0.731801 0.0259123 2.18733e-009 2.44088e-010 -2.83348e-009 2.22167 -0.733487 -0.20892 9.71711e-014 3.10104e-013 -3.27498e-014 -88.5746 22.769 19.811 15.6591 -8.37432 -28.9562 0.00099672 0.90144 -0.1267 -1.84555e-009 3.31974e-010 1.80436e-009 -3.18524e-009 5.77837e-010 3.12933e-009 -1.84555e-009 3.31969e-010 1.80438e-009 -7.73091 5.47488 -0.417314 -1.84554e-009 3.31974e-010 1.80435e-009 -2.90554 0.965183 -0.102902 -1.84555e-009 3.31974e-010 1.80436e-009 -10.2786 0.731801 -0.0259123 -1.84554e-009 3.31974e-010 1.80435e-009 -2.22167 -0.733487 0.20892 -2.03217e-016 0 -3.88251e-019 19.5076 -7.43361 35.6782 -0.126701 6.03161 -1.22834 -23.506 -37.59 -41.3077 2.03217e-016 0 3.88251e-019 -2.58992 -1.29039 -41.1682 -0.000959283 -3.90465 0.0247923 -0.0128475 -39.7129 0.195348 
-183.157 83.7365 2.69943 -8.2354 -12.257 168.505 4.07536 -5.10282 -1.91744 10.2369 -16.0366 1.60602 -5.60547 0.10214 -0.406983 0.218166 10.7031 3.99617 -0 0 0 -0 0 0 1.09917e-013 2.1403e-013 -6.93883e-015 79.3928 58.2255 -16.7697 -15.2325 -7.7213 28.396 -0.208894 -12.514 -1.78941 1.61348e-009 2.8335e-010 -2.3098e-009 2.80602e-009 4.70373e-010 -3.98537e-009 1.61348e-009 2.83353e-010 -2.30982e-009 7.73091 5.47488 0.417314 1.61347e-009 2.83355e-010 -2.3098e-009 2.90554 0.965183 0.102902 1.61348e-009 2.83349e-010 -2.3098e-009 10.2786 0.731801 0.0259123 1.61347e-009 2.83351e-010 -2.3098e-009 2.22167 -0.733487 -0.20892 1.09741e-013 2.14032e-013 -7.20555e-015 -95.3476 24.1383 21.4035 16.4166 -8.75995 -30.9777 0.00112608 0.92996 -0.13071 -1.85906e-009 -2.81844e-010 1.38286e-009 -3.21018e-009 -4.84599e-010 2.4001e-009 -1.85907e-009 -2.81847e-010 1.38288e-009 -7.73091 5.47488 -0.417314 -1.85906e-009 -2.81844e-010 1.38286e-009 -2.90554 0.965183 -0.102902 -1.85906e-009 -2.81844e-010 1.38286e-009 -10.2786 0.731801 -0.0259123 -1.85906e-009 -2.81843e-010 1.38285e-009 -2.22167 -0.733487 0.20892 -2.03217e-016 0 -3.88251e-019 20.9992 -7.42339 38.176 -0.130366 6.26253 -1.31511 -27.6028 -39.0786 -45.4411 2.03217e-016 0 3.88251e-019 -2.72219 -1.24856 -43.968 -0.000355164 -4.08261 0.0270453 0.547528 -42.5169 1.08193 
-183.152 83.7375 2.68502 -7.907 -12.2036 169.902 4.08117 -5.01522 -1.94429 10.1225 -16.0037 1.58543 -5.23543 0.164972 -0.387108 -0.559111 10.4451 3.96668 -0 0 0 -0 0 0 1.17168e-013 3.84667e-014 3.41351e-014 78.8016 58.0307 -16.5404 -15.1576 -7.68834 28.2043 -0.205181 -12.4436 -1.77882 5.32893e-010 3.09989e-010 -1.23427e-009 9.33496e-010 5.24714e-010 -2.13347e-009 5.32898e-010 3.09992e-010 -1.23428e-009 7.73091 5.47488 0.417314 5.32889e-010 3.09991e-010 -1.23427e-009 2.90554 0.965183 0.102902 5.32902e-010 3.09987e-010 -1.23427e-009 10.2786 0.731801 0.0259123 5.32889e-010 3.09988e-010 -1.23427e-009 2.22167 -0.733487 -0.20892 1.17055e-013 3.84666e-014 3.39145e-014 -94.4406 23.9504 21.1516 16.2935 -8.68192 -30.6633 0.000984677 0.87302 -0.122705 -1.68198e-009 -1.22149e-009 5.6881e-010 -2.90693e-009 -2.11136e-009 9.90908e-010 -1.68198e-009 -1.22149e-009 5.68827e-010 -7.73091 5.47488 -0.417314 -1.68198e-009 -1.22149e-009 5.68808e-010 -2.90554 0.965183 -0.102902 -1.68198e-009 -1.22149e-009 5.68806e-010 -10.2786 0.731801 -0.0259123 -1.68198e-009 -1.22149e-009 5.68798e-010 -2.22167 -0.733487 0.20892 -2.03217e-016 0 -3.88251e-019 20.8774 -7.39922 37.8601 -0.129619 6.26479 -1.30499 -27.1586 -39.2267 -44.7893 2.03217e-016 0 3.88251e-019 -2.72333 -1.35718 -43.5105 0.00141487 -3.98708 0.0331863 1.33397 -41.8448 2.30409 
-183.147 83.7354 2.67511 -6.19836 -11.8936 177.006 3.9909 -4.76587 -1.91934 9.69389 -15.511 1.51306 -4.6626 0.225991 -0.35398 -1.42656 9.85027 3.81552 -0 0 0 -0 0 0 1.20252e-013 -1.41223e-013 7.50878e-014 75.0915 56.2535 -15.1374 -14.7462 -7.4859 27.1735 -0.184719 -12.0207 -1.71548 -6.4587e-010 3.53159e-010 -4.94796e-011 -1.10979e-009 6.08849e-010 -9.31323e-011 -6.45864e-010 3.53162e-010 -4.94907e-011 7.73091 5.47488 0.417314 -6.45872e-010 3.53158e-010 -4.94836e-011 2.90554 0.965183 0.102902 -6.4586e-010 3.53156e-010 -4.94822e-011 10.2786 0.731801 0.0259123 -6.45872e-010 3.53157e-010 -4.94784e-011 2.22167 -0.733487 -0.20892 1.20199e-013 -1.41224e-013 7.49119e-014 -90.482 23.1508 20.1688 15.8207 -8.42083 -29.4278 0.000763087 0.781049 -0.109776 -1.42994e-009 -2.13396e-009 -3.11209e-010 -2.47419e-009 -3.69118e-009 -5.32839e-010 -1.42995e-009 -2.13395e-009 -3.11194e-010 -7.73091 5.47488 -0.417314 -1.42994e-009 -2.13395e-009 -3.1121e-010 -2.90554 0.965183 -0.102902 -1.42994e-009 -2.13395e-009 -3.11215e-010 -10.2786 0.731801 -0.0259123 -1.42994e-009 -2.13395e-009 -3.11226e-010 -2.22167 -0.733487 0.20892 -2.03217e-016 0 -3.88251e-019 20.1035 -7.36934 36.4154 -0.127154 6.17263 -1.25525 -24.8707 -38.8012 -42.2033 2.03217e-016 0 3.88251e-019 -2.66377 -1.5225 -41.751 0.0034895 -3.78446 0.0401314 1.97849 -39.7873 3.4181 
